<?xml version="1.0"?>
<svg xmlns="http://www.w3.org/2000/svg" xmlns:xlink="http://www.w3.org/1999/xlink" xmlns:svgjs="http://svgjs.com/svgjs" version="1.1" width="512" height="512" x="0" y="0" viewBox="0 0 512 512" style="enable-background:new 0 0 512 512" xml:space="preserve" class=""><g transform="matrix(0.7500000000000001,0,0,0.7500000000000001,63.99999999999997,63.99999999999997)">
<g xmlns="http://www.w3.org/2000/svg">
	<g>
		<path d="M501.333,245.333c-5.888,0-10.667,4.779-10.667,10.667c0,129.387-105.28,234.667-234.667,234.667    S21.333,385.387,21.333,256S126.613,21.333,256,21.333c117.781,0,186.795,89.152,223.979,163.925    c2.624,5.269,8.981,7.403,14.293,4.821c5.269-2.624,7.424-9.045,4.8-14.315C441.92,60.8,357.867,0,256,0    C114.837,0,0,114.837,0,256s114.837,256,256,256s256-114.837,256-256C512,250.112,507.221,245.333,501.333,245.333z" fill="#ededed" data-original="#000000" style="" class=""/>
	</g>
</g>
<g xmlns="http://www.w3.org/2000/svg">
	<g>
		<path d="M501.333,86.229c-5.888,0-10.667,4.779-10.667,10.667v73.771H416c-5.888,0-10.667,4.779-10.667,10.667    S410.112,192,416,192h85.333c5.888,0,10.667-4.779,10.667-10.667V96.896C512,91.008,507.221,86.229,501.333,86.229z" fill="#ededed" data-original="#000000" style="" class=""/>
	</g>
</g>
</g></svg>
